<?xml version="1.0" encoding="UTF-8"?><svg id="Ebene_1" xmlns="http://www.w3.org/2000/svg" viewBox="0 0 1400 1400"><defs><style>.cls-1,.cls-2{stroke-width:0px;}.cls-2{fill:#1d1d1b;}</style></defs><path class="cls-1" d="M1125.25,943.96c-28.87,0-50.78,23.9-50.78,52.78s21.91,51.78,50.78,51.78,50.78-22.9,50.78-51.78-20.91-52.78-50.78-52.78Z"/><path class="cls-2" d="M1102.84,351.48l-98.38,228.34-98.38-228.34h-74.16l-31.65,73.32-31.59-73.32h-74.16l68.99,158.49-170.58,395.17,1-553.65h-67.22l-238.99,553.65,1-553.65h-65.73v697.04h67.72l237.49-561.96v561.96h67.72l198.09-468.47,105.71,242.86-97.2,225.61h71.07l303.41-697.04h-74.16ZM935.76,739.27l-105.51-244.91,31.47-74.43,106.35,244.34-32.31,75Z"/></svg>