<?xml version="1.0" encoding="utf-8"?>
<!-- Generator: Adobe Illustrator 28.2.0, SVG Export Plug-In . SVG Version: 6.00 Build 0)  -->
<svg version="1.1" id="Ebene_1" opacity="0.9" xmlns="http://www.w3.org/2000/svg" xmlns:xlink="http://www.w3.org/1999/xlink"
	 x="0px" y="0px" viewBox="0 0 2000 2000" style="enable-background:new 0 0 2000 2000;" xml:space="preserve">
<style type="text/css">
	.st0{fill:#486573;}
</style>
<g>
	<path class="st0" d="M1913,356c1.5-7.7,8.9-12.6,16.6-11.2s12.6,8.9,11.2,16.6c-11.5,58.6-8.7,128-5.8,196.2
		c1.9,46.4,3.8,92.3,1.3,134.5c-2.6,43.5-26.1,68.8-50.7,95.4c-13.9,15-28.2,30.4-38.1,49.5c-7.3,111.1,34.7,201.6,74.9,287.9
		c1.1,2.3,0.5,1.1,0,0l5.4,11.7l2.9,6.1c9.2,19.3,19.5,40.7,12.6,63.7c-3.8,12.6-10.4,23.2-19.1,32c-18,18.1-44.9,27.8-74.2,30.7
		c-12.2,1.2-24.9,1.2-37.6,0.2c-21,1.1-20.3,16.1-19.4,34c1.4,28.5,3,61.4-34.1,84.5c-1.8,1.1-3.6,2.2-5.6,3.2
		c2,23.4-1.6,51.7-21.6,73.9c-12.9,14.3-32.1,25.7-60.6,31c1.3,16.7,0.1,32.6-2.9,47.4c-8.5,41-31.9,73.8-61.8,97.7
		c-29.6,23.5-65.6,38.3-99.9,43.5c-19.9,3-39.4,2.8-56.9-0.9l-0.1,0v0c-118.5-25.9-210.8-81.9-281.8-157.2
		c-0.5,13.9-0.6,28.4-0.1,43.5v0.7c-0.3,14.7-0.7,29.8-1.1,45.9c-2.6,103-6.1,239.9,7,368.1c0.8,7.7-4.9,14.6-12.6,15.4
		s-14.6-4.9-15.4-12.6c-13.2-129.8-9.7-267.8-7.1-371.6c0.4-16.1,0.8-31.5,1.1-45.4c-0.8-26.4-0.2-51,1.8-74
		c-75.1-91.6-122.9-206.3-151.1-327.7c-6.9-29.8-13.6-63.1-19.5-96.5c-5.9-33.7-11-67.6-14.7-98.3c-0.4-3.4-0.8-6.7-1.1-10.1
		c-2.8-23.7-5.1-41.1-7.4-58.6c-8.4-64.3-16.7-129-18.6-194.4c-13.5-82.9-50.6-143.7-99.4-186.9c-65.1-57.7-151.4-84.5-230.2-90.5
		c-7.8-0.6-13.6-7.3-13-15.1c0.6-7.8,7.3-13.6,15.1-13c73.7,5.6,153.7,28.5,219.7,75.9c-22.8-40.4-30.2-74-28.4-105.3
		c-6-70.6-60.8-92.8-98-107.8c-1.8-0.7-3.6-1.4-6.7-2.8c-4.5-1.8-6.6-7-4.8-11.5c1.8-4.5,7-6.6,11.5-4.8c1.2,0.5,3.8,1.6,6.6,2.7
		c33.3,13.4,79.2,32,99.4,81c6.7-22.6,16.9-45.1,28-69.3l1.8-3.8c2-4.4,7.2-6.4,11.7-4.4c4.4,2,6.4,7.2,4.4,11.7l-1.8,3.8
		c-36.6,80.5-63.7,140,30.9,258.4c0.5,0.7,1,1.4,1.3,2.2c21.7,24.6,40.3,53.3,54.6,86.4c6.1-69.1,22.9-138.8,58-209.5
		c3.5-7,11.9-9.9,18.9-6.4c7,3.5,9.9,11.9,6.4,18.9c-47.9,96.5-60,192.3-57.7,287.3c0.8,4.8,1.4,9.7,2,14.7c0.3,2.8-0.1,5.4-1.2,7.7
		c2,41.5,6.4,82.8,11.5,123.9c18.3-39.9,49.7-64.2,80.7-88.1c38-29.4,75.2-58.2,78.6-119.9c0.4-7.8,7-13.7,14.8-13.3
		c7.8,0.4,13.7,7,13.3,14.8c-2.3,42.9-17.3,71.9-37.7,95.2l54.7-26.8c0.8-3.2,1.6-6.6,2.4-10.2c7.8-34.5,19.4-86.1,86.7-108.2
		c35.8-14.8,78.9-10.5,122.1-6.2c20.7,2,41.3,4.1,60.7,4c4.5-0.4,8.6,2.8,9.4,7.3c0.8,4.8-2.4,9.4-7.2,10.2
		c-29.1,5-46.9,29.9-65.8,56.4c-36.4,50.9-76.2,106.7-200.2,62.4l-109.2,53.5c-0.6,0.3-1.3,0.5-2,0.7l-3.3,2.5
		c-47.4,36.7-96.2,74.5-83.3,181.8c3.6,30,8.7,63.4,14.5,96.7c5.9,33.4,12.4,66.3,19.1,95.1c25.1,108,66,210.3,128.5,294.5
		c8.3-50.4,23.4-92,42.5-126.8c46.2-97,72.8-189.6,94.1-284c-6-119.7-94.6-147.9-155.7-167.4l-2.5-0.8c-7.4-2.3-11.5-10.2-9.1-17.7
		c2.3-7.4,10.2-11.5,17.7-9.1l2.5,0.8c55.7,17.7,131.6,41.8,162.2,124.2c3.6-17.5,7.1-35.1,10.7-52.9c2.7-13.7,5.5-27.4,11.2-55.4
		c1.6-7.6,9-12.5,16.6-11c7.6,1.6,12.5,9,11,16.6c-1.3,6.6-4.1,20.3-7.2,35.9c27.8-38.7,62.1-60.5,99.6-84.3
		c8.5-5.4,17.3-11,25.3-16.3c4.1-2.7,9.5-1.6,12.2,2.5c2.7,4.1,1.6,9.5-2.5,12.2c-9.2,6.1-17.5,11.4-25.6,16.5
		c-48.6,30.9-91.4,58.1-120.4,126.1c-19,93.8-38.9,184.3-73,277.6c34.9-33.4,72.1-56.7,102.8-76c16.8-10.6,31.6-19.8,42.3-28.6
		c6-4.9,14.9-4,19.8,2c4.9,6,4,14.9-2,19.8c-12.1,9.9-27.5,19.5-45.1,30.5c-72.2,45.3-182.4,114.4-202.8,296
		c2.3,2.6,4.6,5.3,6.9,7.9c68.6,77.2,159.4,134.8,278,160.6v0c14.1,2.9,30.2,3,46.9,0.5c29.8-4.5,61-17.3,86.6-37.7
		c25.2-20.1,44.8-47.4,51.8-81.2c3.2-15.7,3.8-32.9,1-51.7h0c0-0.2-0.1-0.4-0.1-0.6c-0.8-7.7,4.8-14.7,12.5-15.5
		c28.4-3,46.1-12.1,56.6-23.9c11.4-12.7,14.9-29,14.9-44c-34,10.8-79.4,17.8-117.4,23.6c-17.8,2.8-34,5.2-46.1,7.7
		c-7.7,1.5-15.1-3.4-16.6-11.1c-1.5-7.7,3.4-15.1,11.1-16.6c12.9-2.6,29.2-5.1,47.3-7.9c50.2-7.7,113.8-17.5,140.1-33.9
		c23-14.3,21.9-38.4,20.8-59.2c-0.8-16.5-1.6-31.7,3.8-43.1c-1.5-0.4-3-0.8-4.5-1.3c-25-7.5-47.2-19.2-62.1-34
		c-5.5-5.5-5.5-14.4-0.1-19.9c5.5-5.5,14.4-5.5,19.9-0.1c11.4,11.4,29.5,20.7,50.3,26.9c23.7,7.1,50.5,10.2,74.9,7.8
		c23.2-2.3,44-9.4,57-22.6c5.5-5.5,9.6-12.2,12-20.2c3.8-12.5-4-28.8-11-43.5c-0.6-1.3-1.2-2.5-3-6.5c-7.7-16.5,1.1,2.3-5.4-11.6
		c-42-90.2-86-184.8-77.3-304.4h0c0.1-1.8,0.6-3.5,1.4-5.2c11.8-24.1,28.2-41.7,44-58.8c21.1-22.8,41.2-44.4,43.3-77.9
		c2.5-41,0.6-86.1-1.3-131.7c-2.9-69.9-5.9-141.1,6.2-202.7L1913,356z M836.1,127.3c-0.1,0.4-0.2,0.7-0.4,1l17.3,27.9
		c2.5,4.1,1.3,9.6-2.9,12.1c-4.1,2.5-9.6,1.3-12.1-2.9l-18-29.1c-0.2,0-0.3,0-0.5-0.1c-64.4-9-64.9-45.2-65.3-79.3
		c-0.1-9.8-0.3-19.5-2.4-27.4c-1.2-4.7,1.6-9.5,6.3-10.8c1.3-0.4,2.6-0.4,3.9-0.1c2.2-0.2,4.5,0.5,6.4,2c6.1,5.2,14.9,9.5,23.8,13.8
		C822.8,49.4,855.3,65.2,836.1,127.3L836.1,127.3z M820.5,117.8c12-44.1-12.7-56.1-36.1-67.5c-4.4-2.2-8.8-4.3-13-6.6
		c0.2,4.3,0.3,8.7,0.4,13c0.4,26.3,0.7,54.2,47.6,61.7C819.7,118.1,820.1,117.9,820.5,117.8L820.5,117.8z M1194.1,706.4l95.8-46.9
		c4.4-2.1,9.6-0.3,11.8,4c2.1,4.4,0.3,9.6-4,11.8l-93.2,45.7c98.4,29.1,132.2-18.1,163.2-61.5c12.9-18,25.4-35.4,41.3-47.7
		c-8.5-0.7-17.2-1.6-25.7-2.4c-41-4.1-82.1-8.2-113.9,5c-0.2,0.1-0.4,0.2-0.7,0.2C1212.7,632.8,1201,675.9,1194.1,706.4z
		 M268.5,805.5c-1.3,0.4-2.6,0.6-3.8,0.6c-27.3,6.3-54.2,14.3-79.9,21.9l-6.6,1.9c-7.4,2.2-15.3-2.1-17.5-9.5c-1-3.5-0.6-7,0.8-10.1
		c-13.6-7.6-23.2-18.6-30-31c-8.9-16.5-12.4-35.5-12.9-51.6c-0.4-11.5,0.8-21.9,2.6-29c3.4-13.1,9.2-25.5,15-37.7
		c8.2-17.3,16-34,12.5-45.2l-83.1-18.3v0c-5.8-1.3-10.4-6.1-11.1-12.4c-0.8-7.7,4.9-14.6,12.6-15.4l86.1-8.5
		c10.4-13.7,21.6-22.3,32.8-27.1c16.3-7,32.1-6.1,45.5-1.1c46.3,17.3,44.3,47.3,41.8,87c-0.1,2.5-0.3,5-0.4,6.2
		c-0.8,12.8,8.4,27.1,17.9,41.8c10.6,16.4,21.4,33.2,23.6,53.4c1.2,10.8,2.6,26.7-2.4,42.6c-0.5,1.6-1.1,3.1-1.7,4.7
		c44.2-6,88.7-5.4,131.4,9.1c-11.8-20.6-20.2-42.8-25.7-67.2c-1.7-7.6,3.1-15.1,10.7-16.8c7.6-1.7,15.1,3.1,16.8,10.7
		c9.1,40,27,73.8,56.9,103.8c4.8,3.5,9.5,7.1,14.2,11.1c1.8,1.5,3.1,3.4,4,5.5l0.1,0.1c42,34.9,102.7,65.4,187.7,95.8
		c61.5,6.5,119.3,27.7,167.3,71.7l-59.7-162c-2.7-7.3,1.1-15.4,8.4-18.1c7.3-2.7,15.4,1.1,18.1,8.4L950.7,1119
		c13.8,27.9,21.8,59.6,26.6,92c4.7,31.6,6.3,64.1,7.5,94c4.6,122.1,6.4,231.6-0.2,341c-6.6,109.8-21.4,219.5-49.9,341.3
		c-1.8,7.6-9.4,12.3-16.9,10.5c-7.6-1.8-12.3-9.4-10.5-16.9c28.1-120.3,42.8-228.4,49.2-336.6c6.5-108.6,4.8-217.3,0.2-338.4
		c-1.1-28.8-2.7-60.1-7.2-90.9c-4.4-29.9-11.7-59-24.3-84.1c-0.3-0.6-0.6-1.3-0.8-1.9l-20.2-54.8c-49.6-82.2-121.8-117-200.8-125.4
		c-0.8,0-1.6-0.1-2.4-0.2c-12-1.2-24.2-1.8-36.4-1.9c-96.7-0.6-200,31.2-283.5,60.5c-7.3,2.5-15.4-1.3-17.9-8.7
		c-2.5-7.3,1.3-15.4,8.7-17.9c75-26.3,165.8-54.6,255.1-60.8C574,896.8,532.8,873,501,846.6c-6.5-5.4-12.5-10.8-18.2-16.4
		c-64.1-45.3-139.3-41.6-211.8-25.5c-0.8,0.3-1.6,0.5-2.4,0.8L268.5,805.5z M263.5,777.5c13-4.9,19.1-13.2,21.8-21.7
		c3.3-10.6,2.2-22.8,1.3-31.1c-1.5-13.6-10.5-27.6-19.3-41.3c-12-18.6-23.7-36.6-22.3-58.6c0.2-3,0.3-4.7,0.4-6.4
		c1.8-27.8,3.1-48.9-23.5-58.8c-7.2-2.7-15.8-3.2-24.5,0.6c-8,3.5-16.4,10.5-24.6,22.6c-2.6,6.1-3.4,10.8,0.6,18.6
		c11.5,22.6,0.2,46.7-11.6,71.8c-5.2,11.1-10.5,22.4-13.2,32.8c-1.2,4.8-2,12.3-1.8,21.1c0.4,12.4,3,26.8,9.6,39.1
		c6.1,11.2,15.8,20.7,30.8,24.5c5.4,1.4,11.5,2.1,18.5,2C224.5,787.2,243.9,782,263.5,777.5L263.5,777.5z M733.1,1325.8
		c7.7-1.4,15,3.6,16.5,11.3c1.4,7.7-3.6,15-11.3,16.5c-57.3,10.9-93.5,29.5-114.5,55.2c0.4,14.7,15.5,32,30,48.7
		c9.6,11,19.1,21.9,25.6,33.2c12.5,21.6,13,55.3,7.8,91.1c-7.4,50.9-26.3,107.4-38.1,135.7c-3,7.2-11.2,10.6-18.4,7.6l-0.3-0.1
		c-21.1-7.8-40.2-20.8-56.6-37.3c-26.6-26.7-46.4-62.8-56.3-101.1c-10-38.5-10-79.3,2.9-115.2c7.2-20,18.4-38.4,34.1-54.1
		c6.8-6.8,19.7-16.9,33.9-26.7c12.4-8.6,26.1-17.1,37.8-23.1C651.3,1348.7,686.1,1334.7,733.1,1325.8L733.1,1325.8z M605.9,1441.5
		c-0.2,0.6-0.4,1.2-0.6,1.8c-14.4,45.9-3.4,107.8,16,182.3c1.9,7.5-2.6,15.2-10.1,17.2s-15.2-2.6-17.2-10.1
		c-20.6-79.2-32-145.5-15.6-197.8c0.2-0.6,0.4-1.2,0.6-1.8c-1.8,1.5-3.3,2.9-4.6,4.2c-12.6,12.6-21.6,27.4-27.5,43.6
		c-10.9,30.4-10.8,65.4-2.1,98.7c8.7,33.5,25.9,65.1,49,88.3c10.5,10.5,22.1,19.2,34.6,25.6c10.9-29.1,25-74.3,31-115.6
		c4.4-30.3,4.5-57.7-4.3-73c-5.1-8.9-13.7-18.7-22.5-28.7C622.9,1464.9,613,1453.5,605.9,1441.5L605.9,1441.5z M563.7,1229.8
		c6.2,4.6,7.6,13.5,2.9,19.7c-4.6,6.2-13.5,7.6-19.7,2.9c-46.9-34.6-85.2-48.5-118.4-46.4c-10.5,10.2-12.9,33-15.2,55.1
		c-1.6,14.6-3.1,28.9-6.9,41.4c-7.4,23.8-31.7,47.2-61.5,67.7c-42.4,29.2-96.7,53.7-125.4,64.4c-7.3,2.7-15.4-1.1-18.1-8.3
		c-8.7-20.8-12.2-43.8-11.3-67.2c1.5-37.7,14.6-76.8,35.9-110c21.4-33.5,51.4-61.3,86.5-76.2c19.5-8.3,40.6-12.6,62.8-11.7
		c9.6,0.4,25.7,2.9,42.6,6.7c14.7,3.3,30.1,7.5,42.5,12C491.3,1185.4,525.2,1201.4,563.7,1229.8L563.7,1229.8z M392.4,1215.1
		c-0.6,0.2-1.2,0.5-1.7,0.8c-43.4,20.6-81.3,70.7-122.8,135.6c-4.2,6.6-12.9,8.5-19.4,4.3c-6.6-4.2-8.5-12.9-4.3-19.4
		c44.1-68.9,85-122.4,134.5-146c0.6-0.3,1.1-0.5,1.7-0.8c-2.3-0.2-4.4-0.4-6.1-0.5c-17.8-0.7-34.8,2.8-50.6,9.5
		c-29.7,12.6-55.3,36.5-73.8,65.5c-18.7,29.2-30.2,63.3-31.5,95.9c-0.6,14.8,0.9,29.3,4.8,42.8c28.8-11.8,71.5-32.2,105.8-55.9
		c25.1-17.3,45.3-35.9,50.6-52.8c3.1-9.9,4.4-22.8,5.8-36C386.9,1243.4,388.5,1228.4,392.4,1215.1L392.4,1215.1z M297.5,108.9
		c-0.1,0.4-0.2,0.7-0.4,1l17.3,27.9c2.5,4.1,1.3,9.6-2.9,12.1c-4.1,2.5-9.6,1.3-12.1-2.9l-18-29.1c-0.2,0-0.3,0-0.5-0.1
		c-64.4-9-64.9-45.2-65.3-79.3c-0.1-9.8-0.3-19.5-2.4-27.4c-1.2-4.7,1.6-9.5,6.3-10.8c1.3-0.4,2.6-0.4,3.9-0.1
		c2.2-0.2,4.5,0.5,6.4,2c6.1,5.2,14.9,9.5,23.8,13.8C284.3,31,316.8,46.8,297.5,108.9L297.5,108.9z M282,99.4
		c12-44.1-12.7-56.1-36.1-67.5c-4.4-2.2-8.8-4.3-13-6.6c0.2,4.3,0.3,8.7,0.4,13c0.4,26.3,0.7,54.2,47.6,61.7
		C281.2,99.7,281.6,99.5,282,99.4L282,99.4z M586.4,118.7c-0.1,0.4-0.2,0.7-0.4,1l17.3,27.9c2.5,4.1,1.3,9.6-2.9,12.1
		c-4.1,2.5-9.6,1.3-12.1-2.9l-18-29.1c-0.2,0-0.3,0-0.5-0.1c-64.4-9-64.9-45.2-65.3-79.3c-0.1-9.8-0.3-19.5-2.4-27.4
		c-1.2-4.7,1.6-9.5,6.3-10.8c1.3-0.4,2.6-0.4,3.9-0.1c2.2-0.2,4.5,0.5,6.4,2c6.1,5.2,14.9,9.5,23.8,13.8
		C573.1,40.8,605.6,56.7,586.4,118.7L586.4,118.7z M570.8,109.2c12-44.1-12.7-56.1-36.1-67.5c-4.4-2.2-8.8-4.3-13-6.6
		c0.2,4.3,0.3,8.7,0.4,13c0.4,26.3,0.7,54.2,47.6,61.7C570,109.5,570.4,109.4,570.8,109.2L570.8,109.2z M454.1,419.6
		c-0.2,0.8-0.6,1.5-1,2.1l22.9,37c2.5,4.1,1.3,9.6-2.9,12.1c-4.1,2.5-9.6,1.3-12.1-2.9l-23.8-38.5c-0.6,0-1.1,0-1.7-0.1
		c-80.4-11.3-81-56.5-81.6-99.3c-0.2-12.8-0.4-25.3-3.1-35.8c-1.2-4.7,1.6-9.5,6.3-10.8c1.4-0.4,2.9-0.4,4.2-0.1
		c2.3-0.3,4.8,0.4,6.7,2c8.2,6.9,19.5,12.4,31.1,18C437.5,322.2,478.2,342,454.1,419.6z M438.6,410.1c16.7-59.6-16.1-75.6-47.2-90.7
		c-7.1-3.4-14-6.8-20.5-10.7c0.5,6.9,0.6,14,0.7,21.2c0.5,35,1,72,64.1,81.7c0.2-0.1,0.4-0.3,0.7-0.5
		C437,410.6,437.8,410.3,438.6,410.1z M1034.3,1715.1c0.2-1.9,1.9-3.3,3.9-3.1c1.9,0.2,3.3,1.9,3.1,3.9l-18.7,175.6
		c-0.2,1.9-1.9,3.3-3.9,3.1c-1.9-0.2-3.3-1.9-3.1-3.9L1034.3,1715.1z M1023.1,1644.1c0.2-1.9,1.9-3.3,3.9-3.1
		c1.9,0.2,3.3,1.9,3.1,3.9l-18.7,175.6c-0.2,1.9-1.9,3.3-3.9,3.1c-1.9-0.2-3.3-1.9-3.1-3.9L1023.1,1644.1z M1922.2,1124.7
		C1921.7,1123.7,1921.3,1122.7,1922.2,1124.7z"/>
</g>
</svg>
