<?xml version="1.0" encoding="UTF-8"?><svg id="Ebene_2" xmlns="http://www.w3.org/2000/svg" viewBox="0 0 255.12 255.12"><defs><style>.cls-1{opacity:.05;}.cls-1,.cls-2,.cls-3{fill:#333233;stroke-width:0px;}.cls-3{fill-rule:evenodd;}</style></defs><g id="Ebene_1-2"><path class="cls-1" d="M127.56,127.56l-90.2,90.2c-49.81-49.82-49.81-130.58,0-180.4l90.2,90.2Z"/><path class="cls-1" d="M217.76,217.76l-90.2-90.2,90.2-90.2c49.81,49.82,49.81,130.58,0,180.4Z"/><path class="cls-2" d="M127.56,127.56l-90.2,90.2c49.82,49.81,130.58,49.81,180.4,0l-90.2-90.2ZM177.78,212.35c-1.71.28-3.97.82-6.36,1.39-2.99.71-6.08,1.45-8.72,1.84-.48.07-1.29.14-2.31.2-.83,1.64-3.85,6.96-7.85,7.21h-.16s-.15-.05-.15-.05c-2.73-1.19-3.68-1.88-3.77-2.69-.03-.3.05-.75.6-1.15.31-.23.88-.47,1.74-.84,1.28-.54,3.02-1.3,4.43-2.24-4.67.17-10.87.28-17.23.34-.65.64-2.96,2.9-4.32,4.17-2.44,2.27-4.21,3.82-8.33,3.82h-.18c-1.84,0-2.96-.6-3.31-1.6-.36-1.03.33-2.18.93-2.65.8-.62,1.89-1.19,3.06-1.76,1.14-.56,2.36-1.19,3.4-1.93-8.82-.02-16.6-.21-19.31-.67-1.05,1.04-5.23,4.88-10.05,4.88-1.14,0-2.31-.21-3.49-.73-1.83-.8-2.78-1.85-2.83-3.12-.08-1.91,1.95-3.65,3.37-4.63-3.44-.96-6.6-1.75-7.9-1.75-2.94,0-13.94,3.84-17.63,5.3l-.96.38.07-1.03c.35-4.66,3.46-6.89,5.31-8.22.48-.34,1.07-.76,1.15-.95,0-.35-.56-1.04-1.19-1.84-.69-.89-1.56-2-2.29-3.45-1.58-3.17-.06-6.18.01-6.31l.36-.69.61.48c.12.09,11.73,9,16.44,9,1.56,0,4.14-.36,7.04-.86-.48-.82-1.67-1.63-2.67-2.3-1.13-.76-2.02-1.36-2.23-2.11-.16-.57.31-1.05.46-1.21,1.97-2.03,10.93-5.98,16.36-4.64l.15.04.12.11c3.96,3.53,9.62,6.05,10.54,6.44,7.96-.69,20.97-1.67,29.64-1.8,4.78-.05,9.85,1.33,13.58,2.36,2.35.64,4.37,1.2,5.37,1.13,1.92-.11,5.15,2.02,7.71,3.75l.83.55c1.55,1.03,4.45,1.28,6.67,1.16.31-.04.61.17.74.47.05.13.06.27.04.4.86-.03,1.07.25,1.17.4.2.18.29.46.19.72-.89,2.28-5.13,4.08-8.85,4.68Z"/><path class="cls-2" d="M36.99,37.36l90.2,90.2,90.2-90.2c-49.82-49.81-130.58-49.81-180.4,0ZM121.21,58.75c-.63.94-.15,1.05-.57,1.95-.43.91-1.99.16-2.56.05-6.56,2.31-7.31,10.74-7.29,14.28h-.02s.02.03.02.04c0,.57-.48,1.01-1.05,1.05-.76.02-.95-.64-.95-.65-1.14-2.71-2.47-7.79-6.45-7.86-3.28-.04-5.99,2.09-5.94,8.05.04,3.45-1.58,2.92-1.75,2.06-.48-2.33.33-4.95-3.1-.76-1.53,1.88-3.73.55-2.25-1,2.49-2.58,3.28-3.83,2.81-7.03-.73-4.98-6.91-4.17-13.79-2.04-5.06,1.56-6.02-1.37-3.01-2.6,6.83-2.81,9.16-8.56,1.26-10.8-6.01-1.68-5.43-5.01-2.56-4,4.71,1.66,6.38-2.31,3.45-5.55-4.03-4.45-3.08-7.09-1.27-5.56,1.2,1.01,4.22.93,2.85-2.1-2.99-8.66-.04-11.41,1.1-8.03.99,2.89,3.46,2.54,3.34-.56-.36-10.78,5.03-11.62,4.53-9.64-.52,1.97.83,12.67,3.08,7.21,2.51-6.08,6.72-12.62,9.37-12.83,2.74-.2.25,3.98.25,3.98-7.78,12.34-10.19,27.12-2.16,35.94,7.7,8.45,19.92,4.97,19.92,4.97,2.76-1.25,3.45.38,2.74,1.43ZM179.09,64.29c3,1.23,2.05,4.17-3.02,2.6-6.87-2.12-13.05-2.94-13.79,2.04-.47,3.2.32,4.45,2.8,7.03,1.51,1.55-.7,2.89-2.24,1-3.42-4.18-2.61-1.56-3.1.77-.16.85-1.78,1.38-1.74-2.07.05-5.96-2.66-8.08-5.93-8.04-4,.06-5.32,5.15-6.45,7.85,0,.01-.21.67-.96.65-.58-.04-1.04-.48-1.04-1.05v-.03h-.01c.02-3.55-.73-11.97-7.3-14.29-.56.12-2.13.87-2.55-.04-.43-.9.06-1.01-.56-1.95-.72-1.06-.04-2.68,2.72-1.44,0,0,12.23,3.48,19.93-4.97,8.03-8.81,5.62-23.59-2.17-35.93,0,0-2.49-4.19.26-3.98,2.64.21,6.85,6.74,9.36,12.82,2.25,5.46,3.6-5.24,3.09-7.2-.5-1.98,4.86-1.15,4.53,9.64-.13,3.09,2.34,3.45,3.33.55,1.15-3.38,4.09-.63,1.09,8.03-1.35,3.03,1.67,3.11,2.86,2.11,1.8-1.54,2.75,1.1-1.28,5.55-2.92,3.24-1.26,7.22,3.45,5.55,2.88-1.01,3.46,2.32-2.55,4.01-7.89,2.24-5.56,7.99,1.27,10.79Z"/><path class="cls-2" d="M191.88,140.21h-11.83c1.68-1.41,2.78-3.51,2.78-5.87s-1.1-4.47-2.8-5.89h11.96c-.06.35-.11.71-.11,1.08v10.68Z"/><path class="cls-2" d="M214.94,128.45h11.96c-1.7,1.41-2.8,3.51-2.8,5.89s1.1,4.46,2.78,5.87h-11.82v-10.68c0-.37-.05-.73-.11-1.08h0Z"/><path class="cls-2" d="M214.25,126.63c-1.02-1.8-2.93-3.03-5.13-3.03h-11.32c-2.21,0-4.11,1.23-5.13,3.03h-12.61c1.68-1.41,2.77-3.5,2.77-5.86s-1.1-4.47-2.8-5.89h46.85c-1.69,1.41-2.8,3.51-2.8,5.89s1.09,4.45,2.77,5.86h-12.61Z"/><path class="cls-2" d="M178.63,113.06l24.84-9.7,24.84,9.7h-49.67Z"/><path class="cls-2" d="M169.26,120.77c0-3.24,2.63-5.87,5.87-5.87s5.87,2.63,5.87,5.87-2.58,5.8-5.77,5.86h-.11s-.01,0-.02,0c-3.23-.01-5.85-2.64-5.85-5.87h0Z"/><path class="cls-2" d="M169.26,134.34c0-3.24,2.63-5.87,5.87-5.87s5.87,2.63,5.87,5.87-2.6,5.83-5.81,5.87h-.07s0,0-.01,0c-3.23-.01-5.86-2.64-5.86-5.88h0Z"/><path class="cls-2" d="M169.26,147.91c0-3.24,2.63-5.87,5.87-5.87s5.87,2.63,5.87,5.87-2.63,5.86-5.86,5.87h-.02c-3.24,0-5.87-2.64-5.87-5.87h0Z"/><path class="cls-2" d="M182.83,147.91c0-2.37-1.1-4.47-2.79-5.89h11.84v11.76h-11.83c1.69-1.41,2.78-3.51,2.78-5.87h0Z"/><path class="cls-2" d="M215.05,153.78v-11.76h11.84c-1.69,1.41-2.79,3.51-2.79,5.89s1.1,4.46,2.78,5.87h-11.83Z"/><path class="cls-2" d="M237.66,147.91c0,3.24-2.63,5.87-5.87,5.87h-.02c-3.23,0-5.86-2.64-5.86-5.87s2.63-5.87,5.87-5.87c3.25,0,5.88,2.63,5.88,5.87h0Z"/><path class="cls-2" d="M237.66,134.34c0,3.24-2.62,5.87-5.86,5.87,0,0,0,0-.01,0h-.07c-3.21-.03-5.81-2.65-5.81-5.87s2.63-5.87,5.87-5.87c3.24,0,5.88,2.64,5.88,5.88h0Z"/><path class="cls-2" d="M231.81,126.64s-.01,0-.02,0h-.11c-3.19-.06-5.77-2.66-5.77-5.86s2.63-5.87,5.87-5.87,5.87,2.63,5.87,5.87-2.62,5.86-5.85,5.87h0Z"/><path class="cls-2" d="M241.73,115.1c0,.29-.13.55-.37.71-.23.16-.52.2-.8.09l-36.77-14.35c-.21-.08-.45-.08-.66,0l-36.76,14.35c-.27.1-.56.07-.8-.09-.24-.16-.37-.42-.37-.71v-4.75c0-1.63.97-3.06,2.48-3.64l34.37-13.42c.45-.18.93-.28,1.41-.28s.98.09,1.43.28l34.36,13.42c1.5.58,2.48,2.01,2.48,3.64v4.74Z"/><path class="cls-2" d="M213.23,129.53c0-2.26-1.84-4.11-4.1-4.11h-11.32c-2.26,0-4.1,1.84-4.1,4.11v11.57s0,.01,0,.02,0,.01,0,.02v12.65h19.52v-12.65s0-.01,0-.02,0-.01,0-.02v-11.57ZM209.38,141.08c-.82,0-1.47-.66-1.47-1.47s.66-1.47,1.47-1.47,1.47.66,1.47,1.47-.66,1.47-1.47,1.47Z"/><path class="cls-3" d="M31.07,144.62h-5.22v8.81h5.22v-8.81ZM45.26,142.61h1.21l-8.34-10.67c-.23-.54.14-1.38.93-1.38h3.71l-7.29-9.47c-.61-.73-.06-1.68.75-1.68h2.14l-9.92-12.09-9.92,12.09h6.31c1.32,0,1.32,2.01,0,2.01h-3.67l-7.04,9.14h10.71c1.32,0,1.32,2.01,0,2.01h-6.51l-7.89,10.04h34.82,0ZM54.87,139.59v13.84h-8.58v-8.81h2.26c.91-.01.96-.85,1-.96.2-.46-2.33-3.36-2.89-4.07h8.21ZM65.64,121.94l12.29,15.64h-32.85l-3.93-5.01h3.68c.8,0,1.16-.85.94-1.35l-7.49-9.79h2.22c.82,0,1.32-.98.78-1.64l-6.46-7.88,5.11-6.63c.61-.73.06-1.68-.75-1.68h-4.12l15.52-18.92,15.52,18.92h-10.23v2.01h5.61l11.02,14.32h-16.64v2.01h9.77ZM66.48,108.8l8.82,11.45c.61.73.06,1.68-.75,1.68h-6.35l12.56,15.98c.58.7.06,1.67-.76,1.67h-23.13v3.02h38.6l-9.97-12.68c-.58-.7-.06-1.67.76-1.67h4.8l-8.93-11.6c-.61-.73-.06-1.68.75-1.68h2.95l-12.22-14.89-7.15,8.71ZM76.93,144.62h-6.6v8.81h6.6v-8.81Z"/></g></svg>