<?xml version="1.0" encoding="UTF-8"?><svg id="Ebene_2" xmlns="http://www.w3.org/2000/svg" viewBox="0 0 215.03 108.47"><defs><style>.cls-1{stroke-linecap:round;}.cls-1,.cls-2{fill:none;stroke:#2b58a5;stroke-miterlimit:10;stroke-width:3.5px;}.cls-3{fill:#2b58a5;stroke-width:0px;}</style></defs><g id="Ebene_1-2"><path class="cls-3" d="M76.6,57.87h-14.39l2,17.78-2.63-13,2.63-29.66h10.22c4.55,0,8.1,1.1,10.66,3.31,2.56,2.21,3.84,5.29,3.84,9.25,0,2.73-.8,5.14-2.4,7.23-1.6,2.09-3.75,3.53-6.45,4.33l10.66,18.16v.38h-3.84l-10.31-17.78ZM61.21,54.82h14.04c3.03,0,5.46-.86,7.29-2.58,1.84-1.72,2.75-3.95,2.75-6.69,0-3.01-.96-5.35-2.87-7.01-1.91-1.66-4.6-2.49-8.06-2.49h-10.17l-3,18.78Z"/><path class="cls-3" d="M111.95,75.65v-42.66h12.6c4.57,0,8.04.94,10.4,2.83,2.36,1.89,3.54,4.67,3.54,8.34,0,2.21-.6,4.13-1.8,5.76s-2.85,2.8-4.94,3.5c2.48.55,4.48,1.77,5.99,3.66,1.51,1.89,2.27,4.08,2.27,6.56,0,3.77-1.22,6.71-3.65,8.83s-5.82,3.18-10.15,3.18h-14.27ZM115.55,52.13h9.84c3.01-.06,5.34-.77,6.99-2.13,1.65-1.36,2.48-3.34,2.48-5.94,0-2.74-.85-4.76-2.56-6.06-1.71-1.3-4.29-1.95-7.75-1.95h-8.99v16.08ZM115.55,55.17v17.43h10.81c3.09,0,5.53-.78,7.34-2.35,1.81-1.57,2.71-3.75,2.71-6.54,0-2.63-.86-4.71-2.59-6.24-1.73-1.53-4.12-2.3-7.16-2.3h-11.1Z"/><path class="cls-3" d="M215.03,36.04h-14.62v39.61h-3.6v-39.61h-14.59v-3.05h32.81v3.05Z"/><circle class="cls-2" cx="23.01" cy="54.57" r="21.26"/><path class="cls-1" d="M65.57,33c-2.87,6.5-4.47,13.68-4.47,21.24s1.63,14.87,4.55,21.41"/><path class="cls-1" d="M69.39,25.91C78.72,11.38,95.03,1.75,113.58,1.75s34.86,9.63,44.19,24.16"/><path class="cls-1" d="M69.51,82.74c9.35,14.43,25.6,23.98,44.07,23.98s34.73-9.55,44.07-23.98"/><path class="cls-1" d="M165.33,45.51c.48,2.84.73,5.75.73,8.73,0,7.62-1.63,14.87-4.55,21.41"/><circle class="cls-3" cx="162.28" cy="34.56" r="3.54"/></g></svg>