<?xml version="1.0" encoding="UTF-8"?>
<svg id="Hintergrund" xmlns="http://www.w3.org/2000/svg" viewBox="0 0 310.8 310.8">
    <defs>
        <style>
            .cls-1{fill:none;stroke:#000;stroke-linecap:round;stroke-miterlimit:10;stroke-width:8px;}</style>
    </defs>
    <path class="cls-1"
        d="M48.46,262.56C21,235.15,4,197.27,4,155.4,4,86.01,50.7,27.53,114.39,9.63M306.64,164.89c-.17,2.63-.42,5.27-.74,7.9M306.25,141.2c.25,2.62.44,5.24.55,7.87M302.16,118c.65,2.53,1.24,5.08,1.75,7.65M294.68,95.85c1.01,2.38,1.97,4.79,2.86,7.23M284.06,75.35c1.34,2.16,2.63,4.37,3.87,6.61M270.6,57.06c1.65,1.89,3.24,3.83,4.79,5.81M60.77,273.58c25.94,20.79,58.85,33.22,94.68,33.22,72.06,0,132.36-50.31,147.68-117.73M130.51,6.04c8.11-1.34,16.44-2.04,24.93-2.04,40.15,0,76.64,15.61,103.74,41.11" />
</svg>