<?xml version="1.0" encoding="UTF-8"?>
<svg id="Hintergrund" xmlns="http://www.w3.org/2000/svg" xmlns:xlink="http://www.w3.org/1999/xlink"
    viewBox="0 0 328.82 328.82">
    <defs>
        <style>
            .cls-1{mask:url(#mask);}.cls-2{filter:url(#luminosity-invert);}.cls-3{fill:#1d1d1b;}.cls-3,.cls-4{stroke-width:0px;}.cls-4{fill:#096b30;}</style>
        <filter id="luminosity-invert" x="0" y="0" width="328.82" height="328.82"
            color-interpolation-filters="sRGB" filterUnits="userSpaceOnUse">
            <feColorMatrix result="cm" values="-1 0 0 0 1 0 -1 0 0 1 0 0 -1 0 1 0 0 0 1 0" />
        </filter>
        <mask id="mask" x="0" y="0" width="328.82" height="328.82" maskUnits="userSpaceOnUse">
            <g class="cls-2">
                <path class="cls-3"
                    d="M54.32,279.75c-1.28,0-2.56-.49-3.53-1.46C20.32,247.89,3.55,207.44,3.55,164.4c0-35.79,11.5-69.68,33.27-97.98,21.07-27.41,50.91-47.63,84.02-56.94,2.65-.75,5.42.8,6.17,3.46.75,2.66-.8,5.42-3.46,6.17-31.04,8.73-59.03,27.69-78.8,53.41-20.41,26.55-31.2,58.32-31.2,91.89,0,40.36,15.73,78.29,44.3,106.81,1.95,1.95,1.96,5.12,0,7.07-.98.98-2.26,1.47-3.54,1.47Z" />
                <path class="cls-3"
                    d="M319.34,187.31c-.2,0-.41-.01-.61-.04-2.74-.33-4.69-2.83-4.36-5.57.32-2.58.56-5.23.74-7.85.18-2.75,2.57-4.84,5.32-4.66,2.76.18,4.84,2.56,4.66,5.32-.18,2.81-.45,5.65-.79,8.42-.31,2.53-2.47,4.39-4.96,4.39Z" />
                <path class="cls-3"
                    d="M320.27,162.89c-2.66,0-4.87-2.1-4.99-4.78-.11-2.59-.3-5.22-.55-7.84-.27-2.75,1.75-5.19,4.5-5.46,2.73-.27,5.19,1.75,5.46,4.49.27,2.79.47,5.61.59,8.37.12,2.76-2.02,5.09-4.78,5.21-.07,0-.15,0-.22,0Z" />
                <path class="cls-3"
                    d="M317.3,138.77c-2.33,0-4.42-1.64-4.9-4.01-.51-2.53-1.1-5.1-1.75-7.63-.68-2.68.93-5.4,3.6-6.08,2.67-.68,5.4.93,6.08,3.6.69,2.69,1.31,5.42,1.86,8.12.55,2.71-1.2,5.34-3.91,5.89-.33.07-.67.1-1,.1Z" />
                <path class="cls-3"
                    d="M310.73,115.53c-2.04,0-3.95-1.26-4.69-3.28-.89-2.42-1.85-4.85-2.85-7.21-1.08-2.54.11-5.48,2.65-6.56,2.54-1.08,5.48.11,6.56,2.65,1.07,2.52,2.09,5.1,3.03,7.68.95,2.59-.38,5.46-2.97,6.42-.57.21-1.15.31-1.72.31Z" />
                <path class="cls-3"
                    d="M300.84,93.78c-1.76,0-3.47-.94-4.38-2.59-1.23-2.23-2.53-4.45-3.85-6.59-1.46-2.35-.73-5.43,1.61-6.88,2.35-1.46,5.43-.73,6.88,1.61,1.42,2.29,2.8,4.65,4.11,7.04,1.33,2.42.45,5.46-1.97,6.79-.76.42-1.59.62-2.41.62Z" />
                <path class="cls-3"
                    d="M287.93,74.13c-1.49,0-2.96-.66-3.95-1.93-1.53-1.97-3.13-3.91-4.75-5.77-1.81-2.08-1.6-5.24.49-7.05,2.08-1.81,5.24-1.6,7.05.49,1.74,2,3.46,4.09,5.1,6.2,1.7,2.18,1.3,5.32-.88,7.02-.91.71-1.99,1.05-3.07,1.05Z" />
                <path class="cls-3"
                    d="M164.46,325.31c-37.01,0-71.79-12.21-100.6-35.31-2.15-1.73-2.5-4.87-.77-7.03,1.73-2.15,4.87-2.5,7.03-.77,27.01,21.66,59.64,33.11,94.34,33.11s68.07-11.89,94.78-33.47c26.32-21.27,44.93-51.06,52.38-83.87.61-2.69,3.29-4.38,5.98-3.77,2.69.61,4.38,3.29,3.77,5.98-7.95,34.99-27.78,66.75-55.84,89.43-28.48,23.02-64.37,35.69-101.06,35.69Z" />
                <path class="cls-3"
                    d="M271.26,55.83c-1.23,0-2.46-.45-3.42-1.36-28.08-26.42-64.79-40.97-103.37-40.97-8.33,0-16.69.68-24.85,2.03-2.73.45-5.3-1.39-5.75-4.12-.45-2.72,1.39-5.3,4.12-5.75,8.7-1.44,17.61-2.17,26.49-2.17,41.14,0,80.28,15.52,110.23,43.69,2.01,1.89,2.11,5.06.22,7.07-.98,1.05-2.31,1.57-3.64,1.57Z" />
            </g>
        </mask>
    </defs>
    <g class="cls-1">
        <circle class="cls-4" cx="164.41" cy="164.41" r="164.41" />
    </g>
</svg>